<svg width="211" height="170" viewBox="0 0 211 170" fill="none" xmlns="http://www.w3.org/2000/svg">
<path d="M62.6676 169.158H141.74C141.211 161.521 148.895 156.649 155.89 153.527C164.686 149.602 173.658 145.669 181.006 139.441C188.355 133.21 193.972 124.208 193.772 114.576C193.55 103.976 186.563 94.7591 184.114 84.4448C181.214 72.2285 184.847 59.5581 186.771 47.1487C188.694 34.7394 188.319 20.521 179.44 11.6403C172.131 4.32555 160.856 2.61305 150.54 3.34953C140.224 4.08601 130.086 6.86033 119.745 6.91754C107.741 6.98547 96.0588 3.40316 84.2299 1.35102C72.4011 -0.701116 59.5459 -1.05148 49.126 4.91188C37.5403 11.5438 31.0108 25.9838 33.6819 39.0617C35.5414 48.1677 41.3342 56.3405 41.8027 65.6251C42.1924 73.3546 38.8097 80.7695 34.819 87.4014C28.2932 98.252 19.8613 108.155 15.6848 120.11C11.5082 132.066 12.9421 147.346 23.2763 154.668C34.3006 162.472 54.3145 158.547 62.6676 169.158Z" fill="#ECF0F7"/>
<path d="M155.343 47.1307L169.756 21.0305L171.815 22.8163L156.853 50.2902L155.343 47.1307Z" fill="white"/>
<path d="M80.1637 156.728C80.1959 156.721 80.2282 156.71 80.2569 156.696C80.5043 156.585 80.6191 156.295 80.5043 156.044C51.4409 91.0436 26.7743 45.6875 11.052 28.33C10.7041 27.9429 10.4495 27.6669 10.3491 27.5236C10.1913 27.3013 9.88284 27.2476 9.66049 27.4017C9.43814 27.5594 9.38434 27.864 9.53855 28.0898C9.67483 28.2834 9.9187 28.5522 10.3168 28.993C25.9746 46.2753 50.5802 91.5417 79.6042 156.452C79.7046 156.667 79.9413 156.779 80.1637 156.728Z" fill="#7BE1C9"/>
<path d="M1.35104 26.0398C3.19799 27.9787 11.615 30.8854 12.1673 30.3585C12.7196 29.8317 10.22 21.2909 8.37303 19.3519C6.52608 17.413 3.4562 17.3413 1.5196 19.1871C-0.420592 21.0364 -0.495905 24.1044 1.35104 26.0398Z" fill="#7BE1C9"/>
<path d="M17.4609 30.5808C17.0162 33.2831 19.8171 41.9458 20.5917 42.0712C21.3628 42.2002 26.8032 34.8959 27.2515 32.1936C27.6962 29.4912 25.8672 26.9394 23.1667 26.4949C20.4626 26.0505 17.9092 27.8784 17.4609 30.5808Z" fill="#7BE1C9"/>
<path d="M10.0333 47.3182C12.766 47.1462 20.5806 42.4618 20.5304 41.6841C20.4802 40.9028 12.1384 37.2506 9.40207 37.4227C6.66931 37.5947 4.59284 39.953 4.76498 42.684C4.94071 45.4187 7.3005 47.4902 10.0333 47.3182Z" fill="#7BE1C9"/>
<path d="M46.4775 72.4065C45.2438 76.8328 48.3567 91.7962 49.6191 92.1475C50.885 92.4987 61.2853 81.2986 62.519 76.8723C63.7527 72.446 61.1598 67.8584 56.7307 66.6255C52.3016 65.3926 47.7111 67.9802 46.4775 72.4065Z" fill="#7BE1C9"/>
<path d="M31.0521 98.9965C35.6462 99.2008 49.5323 92.8033 49.5897 91.4916C49.6471 90.1798 36.3849 82.5745 31.7909 82.3702C27.1968 82.1659 23.3057 85.7213 23.1013 90.3124C22.8969 94.9036 26.4581 98.7923 31.0521 98.9965Z" fill="#7BE1C9"/>
<path d="M60.5133 87.7928C57.8487 92.746 57.5295 111.444 58.9425 112.204C60.3555 112.964 75.7946 102.394 78.4592 97.4411C81.1238 92.4879 79.2697 86.3126 74.3134 83.6497C69.3572 80.9831 63.178 82.8397 60.5133 87.7928Z" fill="#7BE1C9"/>
<path d="M38.078 122.877C43.6941 122.547 59.7931 113.01 59.6998 111.408C59.6066 109.806 42.5035 102.215 36.8873 102.545C31.2712 102.874 26.982 107.691 27.3119 113.308C27.6382 118.924 32.4582 123.207 38.078 122.877Z" fill="#7BE1C9"/>
<path d="M70.6949 108.896C68.0302 113.849 67.7111 132.547 69.1241 133.307C70.5371 134.066 85.9761 123.497 88.6407 118.544C91.3053 113.591 89.4512 107.415 84.4949 104.753C79.5387 102.09 73.3595 103.946 70.6949 108.896Z" fill="#7BE1C9"/>
<path d="M48.2596 143.983C53.8758 143.654 69.9747 134.117 69.8814 132.515C69.7882 130.912 52.6851 123.321 47.069 123.651C41.4528 123.981 37.1636 128.798 37.4935 134.414C37.8199 140.03 42.6399 144.313 48.2596 143.983Z" fill="#7BE1C9"/>
<path d="M90.3589 134.536C86.0051 138.102 78.5851 155.266 79.6036 156.51C80.6221 157.75 98.923 153.854 103.277 150.288C107.631 146.722 108.265 140.306 104.701 135.959C101.129 131.608 94.7091 130.97 90.3589 134.536Z" fill="#7BE1C9"/>
<path d="M57.5627 164.961C63.1789 165.337 80.3393 157.886 80.4469 156.284C80.5545 154.682 64.5345 145.016 58.9219 144.639C53.3058 144.263 48.4499 148.51 48.0769 154.119C47.7004 159.732 51.9466 164.585 57.5627 164.961Z" fill="#7BE1C9"/>
<path d="M26.4265 43.6123C25.9746 46.3577 28.8221 55.1565 29.6075 55.2855C30.3929 55.4146 35.9194 47.9956 36.3749 45.2502C36.8268 42.5048 34.9691 39.9136 32.2219 39.462C29.4748 39.0104 26.8819 40.8669 26.4265 43.6123Z" fill="#7BE1C9"/>
<path d="M19.2608 60.7405C22.0402 60.5648 29.9767 55.8088 29.9265 55.0167C29.8763 54.2247 21.3983 50.5116 18.6189 50.6872C15.8395 50.8628 13.7307 53.257 13.9101 56.0346C14.0858 58.8087 16.4814 60.9161 19.2608 60.7405Z" fill="#7BE1C9"/>
<path d="M36.2779 55.5185C35.3168 59.3534 38.3221 72.1449 39.4195 72.4209C40.5133 72.6968 49.2065 62.8335 50.1677 59.0022C51.1288 55.1673 48.8013 51.2822 44.9639 50.3216C41.1302 49.3575 37.239 51.6872 36.2779 55.5185Z" fill="#7BE1C9"/>
<path d="M24.3211 80.0979C28.2661 79.847 39.545 73.0911 39.4733 71.9657C39.4016 70.8403 27.3587 65.5646 23.4102 65.8155C19.4653 66.0664 16.4671 69.4676 16.7182 73.4101C16.9728 77.3525 20.3762 80.3488 24.3211 80.0979Z" fill="#7BE1C9"/>
<path d="M153.521 144.399C153.506 144.392 153.492 144.381 153.477 144.371C153.37 144.285 153.352 144.127 153.438 144.016C176.075 115.673 194.035 96.4555 204.005 89.9038C204.227 89.7569 204.385 89.6529 204.453 89.5956C204.561 89.506 204.719 89.5168 204.808 89.6243C204.898 89.7318 204.887 89.8895 204.78 89.9791C204.686 90.0579 204.536 90.1583 204.281 90.3267C194.354 96.8497 176.433 116.028 153.829 144.331C153.757 144.424 153.625 144.453 153.521 144.399Z" fill="#7BE1C9"/>
<path d="M209.083 90.0185C207.925 90.7389 203.402 91.0973 203.198 90.7676C202.994 90.4378 205.318 86.5456 206.476 85.8252C207.634 85.1048 209.159 85.4596 209.876 86.6172C210.597 87.7749 210.242 89.2981 209.083 90.0185Z" fill="#7BE1C9"/>
<path d="M200.559 90.1977C200.433 91.5883 197.944 95.4985 197.546 95.4627C197.148 95.4268 195.398 91.1331 195.524 89.7425C195.649 88.3519 196.876 87.3305 198.267 87.4559C199.659 87.5814 200.684 88.8107 200.559 90.1977Z" fill="#7BE1C9"/>
<path d="M202.083 99.3979C200.756 98.9643 197.504 95.6562 197.626 95.2799C197.751 94.9 202.331 94.1652 203.658 94.5989C204.985 95.0326 205.705 96.459 205.272 97.7851C204.838 99.1112 203.41 99.8352 202.083 99.3979Z" fill="#7BE1C9"/>
<path d="M180.906 107.122C180.949 109.462 177.502 116.444 176.835 116.454C176.168 116.465 172.471 109.616 172.428 107.276C172.385 104.935 174.25 103.004 176.591 102.96C178.933 102.917 180.866 104.781 180.906 107.122Z" fill="#7BE1C9"/>
<path d="M185.116 122.2C182.824 121.716 176.796 116.788 176.935 116.132C177.075 115.48 184.585 113.422 186.877 113.906C189.168 114.39 190.632 116.641 190.144 118.931C189.66 121.221 187.407 122.683 185.116 122.2Z" fill="#7BE1C9"/>
<path d="M172.019 112.913C172.7 115.695 170.469 124.956 169.673 125.149C168.877 125.343 162.619 118.16 161.938 115.379C161.256 112.598 162.96 109.788 165.743 109.107C168.529 108.43 171.337 110.132 172.019 112.913Z" fill="#7BE1C9"/>
<path d="M178.599 133.077C175.87 132.199 169.153 125.443 169.404 124.662C169.655 123.884 179.058 122.325 181.784 123.203C184.513 124.081 186.008 127.006 185.13 129.73C184.251 132.461 181.328 133.959 178.599 133.077Z" fill="#7BE1C9"/>
<path d="M164.301 122.02C164.983 124.802 162.752 134.063 161.956 134.256C161.159 134.45 154.901 127.267 154.22 124.486C153.539 121.705 155.242 118.895 158.025 118.214C160.808 117.533 163.62 119.239 164.301 122.02Z" fill="#7BE1C9"/>
<path d="M170.882 142.184C168.152 141.306 161.435 134.55 161.686 133.769C161.937 132.991 171.341 131.432 174.066 132.31C176.795 133.188 178.291 136.113 177.412 138.837C176.534 141.568 173.611 143.066 170.882 142.184Z" fill="#7BE1C9"/>
<path d="M151.333 132.153C153.022 134.464 154.489 143.876 153.829 144.36C153.169 144.844 144.641 140.586 142.952 138.271C141.263 135.959 141.768 132.712 144.082 131.024C146.395 129.335 149.64 129.841 151.333 132.153Z" fill="#7BE1C9"/>
<path d="M163.613 151.341C160.798 150.811 153.285 144.948 153.439 144.141C153.59 143.338 162.724 140.614 165.539 141.148C168.355 141.679 170.209 144.392 169.674 147.209C169.147 150.023 166.432 151.872 163.613 151.341Z" fill="#7BE1C9"/>
<path d="M194.473 95.4806C194.348 96.8927 191.816 100.867 191.414 100.832C191.013 100.796 189.234 96.4303 189.359 95.0218C189.485 93.6097 190.733 92.5703 192.146 92.6958C193.559 92.8212 194.602 94.0685 194.473 95.4806Z" fill="#7BE1C9"/>
<path d="M195.818 104.842C194.47 104.401 191.163 101.043 191.289 100.66C191.414 100.276 196.069 99.527 197.418 99.9678C198.766 100.409 199.498 101.86 199.057 103.204C198.615 104.548 197.167 105.283 195.818 104.842Z" fill="#7BE1C9"/>
<path d="M188.092 100.093C188.078 102.107 184.958 108.032 184.384 108.025C183.81 108.021 180.783 102.05 180.798 100.036C180.812 98.0217 182.458 96.4053 184.474 96.4196C186.489 96.4375 188.11 98.0826 188.092 100.093Z" fill="#7BE1C9"/>
<path d="M190.847 113.738C188.932 113.111 184.234 108.34 184.413 107.792C184.592 107.247 191.205 106.183 193.12 106.81C195.036 107.437 196.076 109.498 195.448 111.408C194.824 113.326 192.762 114.365 190.847 113.738Z" fill="#7BE1C9"/>
<path d="M125.573 157.309C125.573 157.309 103.532 119.709 173.805 92.9896C173.805 92.9932 172.443 170.373 125.573 157.309Z" fill="#95E7D4"/>
<path d="M173.895 92.8713L123.658 152.162C120.427 141.034 119.218 113.659 173.895 92.8713Z" fill="#7BE1C9"/>
<path d="M125.778 149.883C125.727 149.883 125.674 149.865 125.631 149.829C125.534 149.747 125.523 149.607 125.605 149.51L173.723 92.7245C173.805 92.6277 173.949 92.617 174.042 92.6994C174.139 92.7818 174.15 92.9216 174.067 93.0184L125.95 149.804C125.907 149.858 125.842 149.883 125.778 149.883Z" fill="#1C2A47"/>
<path d="M148.777 122.741C148.665 122.741 148.569 122.658 148.554 122.544C148.536 122.418 148.626 122.307 148.748 122.289L169.247 119.544C169.369 119.522 169.484 119.612 169.502 119.737C169.52 119.863 169.43 119.974 169.308 119.992L148.809 122.737C148.795 122.741 148.784 122.741 148.777 122.741Z" fill="#1C2A47"/>
<path d="M138.47 134.905C138.456 134.905 138.438 134.905 138.424 134.902C138.302 134.876 138.223 134.758 138.248 134.633L142.297 114.748C142.322 114.627 142.444 114.548 142.566 114.573C142.688 114.598 142.767 114.716 142.742 114.842L138.693 134.726C138.671 134.833 138.574 134.905 138.47 134.905Z" fill="#1C2A47"/>
<path d="M120.025 159.735C120.025 159.735 124.569 128.687 176.1 145.277C176.1 145.274 140.488 188.153 120.025 159.735Z" fill="#7BE1C9"/>
<path d="M176.1 145.274L120.025 159.732C120.025 159.735 135.346 189.798 176.1 145.274Z" fill="#3A6B5F"/>
<path d="M161.479 154.757C161.472 154.757 161.465 154.757 161.454 154.753L148.361 152.087C148.26 152.065 148.196 151.969 148.217 151.872C148.239 151.772 148.336 151.711 148.432 151.729L161.526 154.395C161.626 154.417 161.691 154.513 161.669 154.61C161.655 154.703 161.573 154.764 161.479 154.757Z" fill="#7BE1C9"/>
<path d="M142.895 163.617C142.88 163.617 142.866 163.613 142.855 163.61L125.967 158.363C125.87 158.334 125.817 158.23 125.845 158.133C125.874 158.036 125.978 157.983 126.075 158.011L142.963 163.258C143.06 163.287 143.113 163.391 143.085 163.488C143.06 163.574 142.981 163.624 142.895 163.617Z" fill="#7BE1C9"/>
<path d="M71.215 158.044C71.215 158.044 91.9438 122.68 25.8518 97.552C25.8554 97.552 27.1357 170.33 71.215 158.044Z" fill="#7BE1C9"/>
<path d="M25.7688 97.4374L73.0184 153.202C76.056 142.736 77.1928 116.988 25.7688 97.4374Z" fill="#95E7D4"/>
<path d="M71.025 151.073C70.9604 151.073 70.8959 151.044 70.8528 150.994L25.5973 97.5844C25.5184 97.4876 25.5291 97.3443 25.6224 97.2654C25.7192 97.1866 25.8591 97.1973 25.9415 97.2905L71.1971 150.7C71.276 150.797 71.2653 150.94 71.172 151.019C71.129 151.055 71.0752 151.073 71.025 151.073Z" fill="#1C2A47"/>
<path d="M49.3962 125.547C49.3855 125.547 49.3747 125.547 49.3639 125.544L30.084 122.963C29.9584 122.945 29.8724 122.834 29.8903 122.709C29.9082 122.583 30.023 122.494 30.1449 122.515L49.4249 125.096C49.5504 125.113 49.6365 125.225 49.6186 125.35C49.6042 125.465 49.5074 125.547 49.3962 125.547Z" fill="#1C2A47"/>
<path d="M59.0897 136.987C58.9857 136.987 58.8889 136.912 58.8674 136.805L55.0587 118.103C55.0336 117.981 55.1125 117.859 55.2345 117.834C55.3528 117.809 55.4783 117.888 55.5034 118.01L59.3121 136.711C59.3372 136.833 59.2583 136.955 59.1364 136.98C59.1184 136.987 59.1041 136.987 59.0897 136.987Z" fill="#1C2A47"/>
<path d="M76.4339 160.323C76.4339 160.323 72.159 131.12 23.6937 146.725C23.6973 146.725 57.1898 187.053 76.4339 160.323Z" fill="#3A6B5F"/>
<path d="M23.6973 146.725L76.4374 160.323C76.4339 160.323 62.0277 188.601 23.6973 146.725Z" fill="#95E7D4"/>
<path d="M37.4475 155.646C37.4547 155.646 37.4618 155.646 37.469 155.642L49.7844 153.134C49.8776 153.116 49.9386 153.022 49.9207 152.929C49.9027 152.836 49.8095 152.779 49.7163 152.793L37.4009 155.302C37.3076 155.32 37.2467 155.413 37.2646 155.506C37.2825 155.592 37.3614 155.65 37.4475 155.646Z" fill="#3A6B5F"/>
<path d="M54.9239 163.979C54.9382 163.979 54.949 163.975 54.9633 163.972L70.8471 159.036C70.9367 159.008 70.9869 158.911 70.9618 158.821C70.9331 158.732 70.8363 158.678 70.7467 158.707L54.8629 163.642C54.7733 163.671 54.723 163.767 54.7482 163.857C54.7733 163.936 54.8486 163.982 54.9239 163.979Z" fill="#3A6B5F"/>
<path d="M91.4164 25.8999C90.9682 26.2798 90.5414 26.6848 90.1397 27.1149C86.8331 30.6308 87.0483 36.7452 82.4614 39.1179C79.18 40.8167 75.2458 39.3867 71.5627 39.1214C68.8442 38.9243 66.0218 39.4225 63.7302 40.8991C61.4421 42.3758 59.7637 44.9097 59.6848 47.63C59.6059 50.3037 60.9938 52.8125 61.2198 55.4754C61.4242 57.9018 60.6065 60.3999 58.9998 62.2349C57.2856 64.1954 54.829 65.328 52.8027 66.9659C50.7764 68.6038 49.0945 71.2237 49.8835 73.7075C50.7298 76.3704 53.9683 77.589 55.1195 80.1336C56.3567 82.8718 54.7931 85.9649 53.6634 88.7461C52.5337 91.5273 52.1464 95.373 54.7106 96.9356C55.8475 97.6309 57.2712 97.6345 58.5982 97.5127C59.4732 97.4302 60.4057 97.3084 61.1947 97.699C61.6716 97.9356 62.0446 98.3334 62.3781 98.7456C64.3793 101.204 65.6847 104.591 68.6721 105.656C70.2142 106.204 71.9105 105.993 73.5315 105.763C76.9206 105.283 80.4854 104.674 83.1177 102.484C87.6795 98.6847 87.8553 91.556 91.8074 87.1261C94.9561 83.5958 99.9447 82.3916 104.653 81.9328C109.362 81.4741 114.225 81.5493 118.637 79.8398C121.276 78.8183 123.672 77.1661 125.565 75.0658C126.81 73.6824 127.875 72.0122 127.99 70.1557C128.237 66.1451 124.167 63.1381 123.36 59.2028C122.707 56.013 123.908 52.9236 123.955 49.7481C123.998 46.6372 122.556 43.58 121.326 40.7737C118.834 35.1001 114.803 26.7852 109.201 23.6527C103.649 20.5489 96.1504 21.8714 91.4164 25.8999Z" fill="#1C2A47"/>
<mask id="path-54-inside-1_4_3600" fill="white">
<path fill-rule="evenodd" clip-rule="evenodd" d="M165.54 64.0702L170.042 71.0696L161.34 77.5373L161.341 77.5388C161.341 77.5388 148.94 104.555 137.625 104.77C126.31 104.989 117.825 92.3767 118.044 91.7244C118.262 91.0721 125.442 83.431 125.442 83.431H129.14V83.4345C129.14 83.4345 134.361 90.4234 138.712 90.4234C142.496 90.4234 154.189 76.433 157.164 72.7961C157.2 72.7382 158.749 70.1985 160.226 67.9856C160.319 67.8201 162.564 63.8193 163.895 62.6471C165.255 61.45 167.191 60.2566 167.421 60.744C167.53 60.9756 166.875 61.9934 166.052 63.2717C165.887 63.5288 165.714 63.7963 165.54 64.0702ZM65.6081 103.849C64.7941 101.566 71.8662 93.3158 71.8662 93.3158L61.8891 83.431C61.8891 83.431 52.2276 93.9 51.7399 100.749C51.2759 107.217 70.0236 126.917 73.2777 130.337L73.2778 130.337L73.2778 130.337L73.2778 130.337L73.2787 130.338C73.47 130.539 73.6076 130.683 73.6845 130.765C74.1631 131.277 74.5157 132.214 74.7722 133.22C74.5333 134.623 73.9201 136.56 72.4898 138.998C71.1198 141.335 72.6763 147.98 73.3756 147.972C74.075 147.965 73.7701 143.901 73.7701 143.901C73.7701 143.901 74.2937 148.972 75.176 148.944C76.0582 148.911 75.5884 143.686 75.5884 143.686C75.5884 143.686 76.3881 149.198 77.2883 148.876C78.1885 148.549 77.8908 143.385 77.8908 143.385C77.8908 143.385 79.0671 149.277 79.5548 148.532C79.8643 148.059 79.9326 145.956 79.988 144.253C80.0199 143.272 80.0474 142.424 80.1143 142.098C80.2049 141.656 80.8319 140.189 81.5098 138.602L81.5099 138.601C81.7364 138.071 81.9686 137.528 82.1884 137.005C82.4137 137.314 82.6981 138.179 83.0031 139.106C83.4611 140.498 83.9654 142.031 84.3851 142.037C84.9478 142.045 84.8098 140.061 84.6891 138.324C84.6482 137.736 84.6093 137.177 84.6003 136.733C84.5644 134.98 81.8209 130.375 81.8209 130.375L81.8208 130.376C81.2104 129.273 80.4975 128.129 79.8707 127.165C78.4904 124.737 75.7127 120.343 72.9693 116.002L72.9692 116.002C69.4682 110.463 66.0229 105.013 65.6081 103.849Z"/>
</mask>
<path fill-rule="evenodd" clip-rule="evenodd" d="M165.54 64.0702L170.042 71.0696L161.34 77.5373L161.341 77.5388C161.341 77.5388 148.94 104.555 137.625 104.77C126.31 104.989 117.825 92.3767 118.044 91.7244C118.262 91.0721 125.442 83.431 125.442 83.431H129.14V83.4345C129.14 83.4345 134.361 90.4234 138.712 90.4234C142.496 90.4234 154.189 76.433 157.164 72.7961C157.2 72.7382 158.749 70.1985 160.226 67.9856C160.319 67.8201 162.564 63.8193 163.895 62.6471C165.255 61.45 167.191 60.2566 167.421 60.744C167.53 60.9756 166.875 61.9934 166.052 63.2717C165.887 63.5288 165.714 63.7963 165.54 64.0702ZM65.6081 103.849C64.7941 101.566 71.8662 93.3158 71.8662 93.3158L61.8891 83.431C61.8891 83.431 52.2276 93.9 51.7399 100.749C51.2759 107.217 70.0236 126.917 73.2777 130.337L73.2778 130.337L73.2778 130.337L73.2778 130.337L73.2787 130.338C73.47 130.539 73.6076 130.683 73.6845 130.765C74.1631 131.277 74.5157 132.214 74.7722 133.22C74.5333 134.623 73.9201 136.56 72.4898 138.998C71.1198 141.335 72.6763 147.98 73.3756 147.972C74.075 147.965 73.7701 143.901 73.7701 143.901C73.7701 143.901 74.2937 148.972 75.176 148.944C76.0582 148.911 75.5884 143.686 75.5884 143.686C75.5884 143.686 76.3881 149.198 77.2883 148.876C78.1885 148.549 77.8908 143.385 77.8908 143.385C77.8908 143.385 79.0671 149.277 79.5548 148.532C79.8643 148.059 79.9326 145.956 79.988 144.253C80.0199 143.272 80.0474 142.424 80.1143 142.098C80.2049 141.656 80.8319 140.189 81.5098 138.602L81.5099 138.601C81.7364 138.071 81.9686 137.528 82.1884 137.005C82.4137 137.314 82.6981 138.179 83.0031 139.106C83.4611 140.498 83.9654 142.031 84.3851 142.037C84.9478 142.045 84.8098 140.061 84.6891 138.324C84.6482 137.736 84.6093 137.177 84.6003 136.733C84.5644 134.98 81.8209 130.375 81.8209 130.375L81.8208 130.376C81.2104 129.273 80.4975 128.129 79.8707 127.165C78.4904 124.737 75.7127 120.343 72.9693 116.002L72.9692 116.002C69.4682 110.463 66.0229 105.013 65.6081 103.849Z" fill="#B5C4E2"/>
<path d="M165.54 64.0702L164.696 63.5336L164.353 64.0732L164.699 64.6111L165.54 64.0702ZM170.042 71.0696L170.639 71.8722L171.389 71.3147L170.883 70.5286L170.042 71.0696ZM161.34 77.5373L160.744 76.7347L160.005 77.2834L160.491 78.0649L161.34 77.5373ZM161.341 77.5388L162.25 77.956L162.474 77.4676L162.191 77.0112L161.341 77.5388ZM137.625 104.77L137.606 103.771L137.606 103.771L137.625 104.77ZM118.044 91.7244L117.096 91.4065L118.044 91.7244ZM125.442 83.431V82.431H125.01L124.714 82.7462L125.442 83.431ZM129.14 83.431H130.14V82.431H129.14V83.431ZM129.14 83.4345H128.14V83.7669L128.339 84.0331L129.14 83.4345ZM157.164 72.7961L157.938 73.4293L157.982 73.3758L158.018 73.3167L157.164 72.7961ZM160.226 67.9856L161.058 68.5408L161.079 68.5082L161.099 68.474L160.226 67.9856ZM163.895 62.6471L164.556 63.3976V63.3976L163.895 62.6471ZM167.421 60.744L168.325 60.318V60.318L167.421 60.744ZM166.052 63.2717L166.893 63.8129L166.052 63.2717ZM71.8662 93.3158L72.6255 93.9666L73.231 93.2602L72.5701 92.6054L71.8662 93.3158ZM65.6081 103.849L66.5501 103.513L65.6081 103.849ZM61.8891 83.431L62.593 82.7206L61.8569 81.9914L61.1543 82.7528L61.8891 83.431ZM51.7399 100.749L52.7373 100.821L52.7374 100.82L51.7399 100.749ZM73.2777 130.337L74.021 129.668L74.0117 129.657L74.0021 129.647L73.2777 130.337ZM73.2778 130.337L72.5345 131.006L72.5521 131.025L72.5707 131.044L73.2778 130.337ZM73.2778 130.337L72.5707 131.044L72.5915 131.065L72.6134 131.084L73.2778 130.337ZM73.2778 130.337L74.0015 129.647L73.973 129.617L73.9422 129.589L73.2778 130.337ZM73.2787 130.338L74.0031 129.648L74.0024 129.647L73.2787 130.338ZM73.6845 130.765L74.4149 130.082H74.4149L73.6845 130.765ZM74.7722 133.22L75.758 133.388L75.7936 133.178L75.7412 132.973L74.7722 133.22ZM72.4898 138.998L71.6273 138.492L71.6271 138.492L72.4898 138.998ZM73.3756 147.972L73.3859 148.972L73.3756 147.972ZM73.7701 143.901L74.7648 143.798L72.7729 143.976L73.7701 143.901ZM75.176 148.944L75.2084 149.943L75.2125 149.943L75.176 148.944ZM75.5884 143.686L76.578 143.542L74.5924 143.775L75.5884 143.686ZM77.2883 148.876L77.6256 149.817L77.6289 149.816L77.2883 148.876ZM77.8908 143.385L78.8714 143.189L76.8924 143.442L77.8908 143.385ZM79.5548 148.532L80.3917 149.079L79.5548 148.532ZM79.988 144.253L80.9875 144.286V144.286L79.988 144.253ZM80.1143 142.098L79.1347 141.897H79.1347L80.1143 142.098ZM81.5098 138.602L82.4295 138.994L82.4329 138.986L81.5098 138.602ZM81.5099 138.601L80.5902 138.209L80.5868 138.217L81.5099 138.601ZM82.1884 137.005L82.9973 136.417L81.9539 134.981L81.2665 136.617L82.1884 137.005ZM83.0031 139.106L83.953 138.793V138.793L83.0031 139.106ZM84.3851 142.037L84.3994 141.037H84.3994L84.3851 142.037ZM84.6891 138.324L85.6867 138.255L84.6891 138.324ZM84.6003 136.733L85.6001 136.712V136.712L84.6003 136.733ZM81.8209 130.375L82.68 129.863L81.0633 127.149L80.8238 130.299L81.8209 130.375ZM81.8208 130.376L80.946 130.86L82.5646 133.784L82.818 130.451L81.8208 130.376ZM79.8707 127.165L79.0014 127.659L79.0162 127.685L79.0324 127.71L79.8707 127.165ZM72.9693 116.002L72.1178 116.527L72.124 116.536L72.9693 116.002ZM72.9692 116.002L73.8207 115.478L73.8145 115.468L72.9692 116.002ZM164.699 64.6111L169.201 71.6106L170.883 70.5286L166.381 63.5292L164.699 64.6111ZM169.446 70.267L160.744 76.7347L161.937 78.3399L170.639 71.8722L169.446 70.267ZM160.491 78.0649L160.492 78.0664L162.191 77.0112L162.19 77.0097L160.491 78.0649ZM161.341 77.5388C160.432 77.1216 160.432 77.1216 160.432 77.1216C160.432 77.1218 160.432 77.1219 160.432 77.1222C160.432 77.1229 160.431 77.1239 160.431 77.1253C160.429 77.1282 160.427 77.1326 160.424 77.1387C160.419 77.1509 160.41 77.1694 160.399 77.1941C160.376 77.2435 160.341 77.3176 160.295 77.4148C160.203 77.6091 160.066 77.8955 159.888 78.261C159.53 78.9921 159.007 80.0389 158.342 81.2965C157.013 83.8137 155.127 87.1662 152.894 90.5197C150.656 93.8802 148.095 97.2053 145.423 99.6927C142.723 102.205 140.058 103.724 137.606 103.771L137.644 105.77C140.849 105.709 143.977 103.77 146.785 101.157C149.62 98.518 152.281 95.0487 154.559 91.6281C156.84 88.2007 158.762 84.7855 160.111 82.2305C160.786 80.9519 161.32 79.8863 161.685 79.1391C161.867 78.7655 162.008 78.4713 162.103 78.2697C162.151 78.169 162.187 78.0913 162.212 78.0385C162.224 78.0121 162.233 77.9918 162.24 77.978C162.243 77.9711 162.245 77.9658 162.247 77.9621C162.248 77.9603 162.249 77.9588 162.249 77.9578C162.249 77.9573 162.25 77.9568 162.25 77.9566C162.25 77.9562 162.25 77.956 161.341 77.5388ZM137.606 103.771C132.322 103.873 127.613 100.971 124.184 97.8359C122.482 96.2797 121.13 94.6977 120.223 93.4735C119.769 92.8602 119.435 92.3482 119.226 91.984C119.12 91.799 119.058 91.6717 119.028 91.5993C119.012 91.5611 119.015 91.5629 119.023 91.5936C119.026 91.6095 119.035 91.6521 119.039 91.7129C119.041 91.7661 119.043 91.8905 118.992 92.0424L117.096 91.4065C116.994 91.709 117.059 91.9785 117.074 92.0461C117.102 92.1628 117.142 92.2724 117.179 92.3623C117.255 92.5463 117.363 92.7566 117.491 92.9785C117.748 93.428 118.129 94.0067 118.616 94.6641C119.592 95.9813 121.028 97.661 122.835 99.312C126.422 102.592 131.613 105.887 137.644 105.77L137.606 103.771ZM118.992 92.0424C118.952 92.1603 118.906 92.2054 118.981 92.0993C119.028 92.0317 119.102 91.9343 119.205 91.8058C119.409 91.5505 119.697 91.2106 120.046 90.8102C120.742 90.0114 121.653 89.0023 122.563 88.0081C123.471 87.0151 124.374 86.0418 125.049 85.3165C125.386 84.954 125.667 84.6536 125.863 84.4439C125.962 84.3391 126.039 84.2569 126.091 84.201C126.117 84.1731 126.137 84.1517 126.151 84.1373C126.157 84.1302 126.163 84.1247 126.166 84.1211C126.168 84.1193 126.169 84.1179 126.17 84.117C126.17 84.1166 126.171 84.1162 126.171 84.116C126.171 84.1159 126.171 84.1158 126.171 84.1158C126.171 84.1157 126.171 84.1157 125.442 83.431C124.714 82.7462 124.713 82.7462 124.713 82.7463C124.713 82.7464 124.713 82.7465 124.713 82.7466C124.713 82.7468 124.713 82.7472 124.712 82.7477C124.711 82.7486 124.71 82.75 124.708 82.7519C124.705 82.7556 124.699 82.7612 124.693 82.7685C124.679 82.783 124.659 82.8047 124.632 82.8328C124.579 82.8892 124.502 82.9718 124.403 83.0772C124.206 83.288 123.924 83.5896 123.585 83.9536C122.907 84.6814 122.001 85.6593 121.087 86.6581C120.174 87.6557 119.25 88.6792 118.538 89.4966C118.183 89.9042 117.874 90.2684 117.644 90.5558C117.529 90.6986 117.427 90.8323 117.345 90.9483C117.291 91.0258 117.163 91.207 117.096 91.4065L118.992 92.0424ZM125.442 84.431H129.14V82.431H125.442V84.431ZM128.14 83.431V83.4345H130.14V83.431H128.14ZM129.14 83.4345C128.339 84.0331 128.339 84.0333 128.339 84.0335C128.339 84.0336 128.339 84.0338 128.339 84.034C128.34 84.0344 128.34 84.035 128.341 84.0356C128.341 84.0369 128.343 84.0386 128.344 84.0407C128.348 84.0449 128.352 84.0508 128.358 84.0583C128.369 84.0732 128.385 84.0946 128.406 84.1221C128.448 84.1769 128.51 84.2559 128.589 84.3555C128.746 84.5547 128.975 84.8369 129.262 85.1746C129.835 85.8485 130.649 86.7504 131.608 87.6558C132.562 88.558 133.682 89.4846 134.869 90.1908C136.045 90.8902 137.369 91.4234 138.712 91.4234V89.4234C137.879 89.4234 136.919 89.0831 135.892 88.472C134.877 87.8678 133.876 87.0472 132.981 86.2021C132.09 85.3603 131.327 84.515 130.785 83.8785C130.515 83.561 130.302 83.2972 130.157 83.1142C130.084 83.0227 130.029 82.9515 129.993 82.904C129.974 82.8802 129.961 82.8624 129.952 82.8509C129.948 82.8452 129.945 82.8411 129.943 82.8385C129.942 82.8373 129.941 82.8365 129.941 82.836C129.941 82.8358 129.941 82.8357 129.941 82.8357C129.941 82.8357 129.941 82.8358 129.941 82.8358C129.941 82.8359 129.941 82.836 129.14 83.4345ZM138.712 91.4234C139.451 91.4234 140.234 91.0975 140.962 90.6852C141.718 90.2568 142.546 89.6576 143.406 88.955C145.128 87.548 147.07 85.6511 148.965 83.6636C152.76 79.6837 156.446 75.2536 157.938 73.4293L156.39 72.1629C154.907 73.9754 151.259 78.359 147.518 82.2835C145.644 84.2483 143.768 86.0763 142.14 87.4062C141.325 88.072 140.595 88.5942 139.976 88.9451C139.328 89.3122 138.918 89.4234 138.712 89.4234V91.4234ZM158.018 73.3167C158.053 73.2599 159.593 70.7353 161.058 68.5408L159.394 67.4304C157.905 69.6617 156.347 72.2166 156.311 72.2755L158.018 73.3167ZM161.099 68.474C161.141 68.3979 161.716 67.3742 162.441 66.229C163.195 65.0387 164.017 63.8729 164.556 63.3976L163.234 61.8967C162.443 62.5935 161.476 64.0143 160.751 65.1588C159.998 66.3484 159.403 67.4078 159.353 67.4973L161.099 68.474ZM164.556 63.3976C165.193 62.8371 165.961 62.2818 166.575 61.9338C166.892 61.754 167.109 61.6633 167.219 61.6343C167.282 61.6179 167.228 61.6433 167.11 61.6256C166.954 61.602 166.666 61.4895 166.516 61.17L168.325 60.318C168.118 59.8767 167.72 59.6948 167.408 59.6479C167.135 59.6067 166.882 59.6549 166.709 59.7005C166.349 59.7955 165.954 59.9866 165.588 60.1939C164.837 60.6201 163.957 61.2601 163.234 61.8967L164.556 63.3976ZM166.516 61.17C166.398 60.9193 166.439 60.7116 166.442 60.6962C166.449 60.6526 166.456 60.6443 166.44 60.6868C166.407 60.7688 166.337 60.9093 166.217 61.1196C165.981 61.5343 165.628 62.0824 165.211 62.7305L166.893 63.8129C167.298 63.1827 167.685 62.5827 167.954 62.111C168.087 61.8781 168.212 61.6409 168.298 61.4269C168.34 61.3215 168.387 61.1857 168.412 61.0372C168.433 60.9168 168.471 60.6266 168.325 60.318L166.516 61.17ZM165.211 62.7305C165.046 62.9872 164.872 63.2571 164.696 63.5336L166.384 64.6068C166.557 64.3356 166.727 64.0703 166.893 63.8129L165.211 62.7305ZM71.8662 93.3158C71.107 92.665 71.1069 92.6651 71.1068 92.6652C71.1067 92.6653 71.1066 92.6654 71.1064 92.6656C71.1061 92.666 71.1057 92.6664 71.1052 92.667C71.1042 92.6682 71.1028 92.6699 71.1009 92.6721C71.0972 92.6765 71.0917 92.6828 71.0847 92.6911C71.0707 92.7076 71.0501 92.7317 71.0236 92.7631C70.9705 92.8258 70.8934 92.9174 70.7959 93.0344C70.6008 93.2684 70.3239 93.6042 69.9945 94.0141C69.3366 94.8327 68.4649 95.952 67.6164 97.1476C66.7724 98.3369 65.9308 99.6304 65.3485 100.792C65.0581 101.372 64.8155 101.951 64.6755 102.49C64.5422 103.002 64.4638 103.618 64.6662 104.185L66.5501 103.513C66.5529 103.521 66.5399 103.489 66.5435 103.393C66.5472 103.298 66.5661 103.166 66.6111 102.993C66.7021 102.643 66.8784 102.203 67.1365 101.688C67.6514 100.661 68.4251 99.4638 69.2474 98.3051C70.0652 97.1527 70.9107 96.0668 71.5534 95.267C71.8743 94.8677 72.1435 94.5412 72.3321 94.3151C72.4263 94.202 72.5003 94.1142 72.5504 94.0549C72.5755 94.0253 72.5946 94.0028 72.6073 93.9879C72.6136 93.9805 72.6183 93.975 72.6214 93.9714C72.6229 93.9696 72.624 93.9683 72.6247 93.9675C72.625 93.9671 72.6253 93.9668 72.6254 93.9667C72.6255 93.9666 72.6255 93.9666 72.6255 93.9665C72.6255 93.9665 72.6255 93.9666 71.8662 93.3158ZM61.1853 84.1414L71.1624 94.0262L72.5701 92.6054L62.593 82.7206L61.1853 84.1414ZM52.7374 100.82C52.8457 99.2994 53.4751 97.4986 54.4255 95.6016C55.3687 93.7192 56.5909 91.8144 57.8117 90.1021C59.0306 88.3925 60.2363 86.8911 61.1379 85.8166C61.5884 85.2798 61.9619 84.8508 62.222 84.5569C62.352 84.4099 62.4535 84.2969 62.5221 84.2211C62.5564 84.1832 62.5824 84.1547 62.5996 84.1359C62.6082 84.1265 62.6145 84.1195 62.6186 84.115C62.6207 84.1128 62.6222 84.1112 62.6231 84.1102C62.6235 84.1097 62.6238 84.1094 62.624 84.1092C62.6241 84.1091 62.6241 84.1091 62.6241 84.1091C62.6241 84.1091 62.624 84.1092 61.8891 83.431C61.1543 82.7528 61.1541 82.7529 61.154 82.7531C61.1539 82.7532 61.1536 82.7535 61.1534 82.7537C61.153 82.7542 61.1524 82.7548 61.1517 82.7556C61.1503 82.7571 61.1482 82.7593 61.1457 82.7621C61.1405 82.7678 61.133 82.776 61.1233 82.7866C61.1039 82.8078 61.0756 82.8389 61.039 82.8793C60.9658 82.9603 60.8593 83.0788 60.7241 83.2315C60.4539 83.5369 60.0688 83.9793 59.6059 84.531C58.6808 85.6334 57.4406 87.1773 56.1832 88.9411C54.9276 90.7022 53.6429 92.6989 52.6374 94.7057C51.6392 96.698 50.878 98.7742 50.7424 100.678L52.7374 100.82ZM74.0021 129.647C72.376 127.938 66.8985 122.182 61.8888 116.053C59.382 112.986 57.0115 109.849 55.3016 107.093C54.4463 105.714 53.7703 104.453 53.3247 103.36C52.8707 102.246 52.6957 101.401 52.7373 100.821L50.7425 100.678C50.6681 101.714 50.9775 102.9 51.4727 104.115C51.9762 105.35 52.7142 106.716 53.6021 108.147C55.3786 111.011 57.8114 114.225 60.3403 117.319C65.4019 123.512 70.9253 129.315 72.5533 131.026L74.0021 129.647ZM74.021 129.668L74.021 129.668L72.5344 131.006L72.5345 131.006L74.021 129.668ZM73.9849 129.63L73.9849 129.63L72.5707 131.044L72.5707 131.044L73.9849 129.63ZM73.9422 129.589L73.9422 129.589L72.6134 131.084L72.6135 131.084L73.9422 129.589ZM74.0024 129.647L74.0015 129.647L72.5542 131.027L72.5551 131.028L74.0024 129.647ZM74.4149 130.082C74.3342 129.996 74.1925 129.847 74.0031 129.648L72.5543 131.027C72.7474 131.23 72.881 131.37 72.9541 131.449L74.4149 130.082ZM75.7412 132.973C75.4833 131.961 75.0835 130.797 74.4149 130.082L72.9541 131.448C73.2427 131.757 73.5481 132.466 73.8032 133.467L75.7412 132.973ZM73.3523 139.504C74.8372 136.973 75.4968 134.922 75.758 133.388L73.7864 133.052C73.5699 134.324 73.003 136.147 71.6273 138.492L73.3523 139.504ZM73.3654 146.973C73.7192 146.969 73.9176 147.167 73.9379 147.187C73.9789 147.227 73.9791 147.241 73.9473 147.186C73.8875 147.082 73.7992 146.884 73.6968 146.581C73.4961 145.988 73.2906 145.143 73.1447 144.21C72.999 143.277 72.9185 142.295 72.9512 141.425C72.9851 140.525 73.1364 139.872 73.3525 139.504L71.6271 138.492C71.1583 139.292 70.9904 140.346 70.9526 141.35C70.9138 142.382 71.0092 143.499 71.1687 144.519C71.3281 145.538 71.5573 146.499 71.8023 147.222C71.9228 147.578 72.0601 147.916 72.2139 148.184C72.2889 148.314 72.3929 148.472 72.5329 148.61C72.6522 148.728 72.9446 148.977 73.3859 148.972L73.3654 146.973ZM73.7701 143.901C72.7729 143.976 72.7729 143.976 72.7729 143.976C72.7729 143.976 72.7729 143.976 72.7729 143.976C72.7729 143.976 72.7729 143.976 72.7729 143.976C72.773 143.976 72.773 143.977 72.773 143.977C72.7732 143.979 72.7733 143.981 72.7736 143.985C72.7741 143.991 72.7748 144.002 72.7758 144.016C72.7777 144.043 72.7805 144.085 72.7838 144.138C72.7905 144.245 72.7994 144.398 72.8079 144.582C72.8251 144.953 72.8405 145.441 72.8352 145.923C72.8297 146.418 72.8026 146.858 72.7486 147.154C72.7198 147.311 72.6962 147.353 72.7076 147.331C72.7149 147.317 72.7563 147.24 72.855 147.157C72.968 147.063 73.1448 146.975 73.3654 146.973L73.3859 148.972C74.0395 148.966 74.3671 148.473 74.4791 148.26C74.6078 148.014 74.675 147.738 74.716 147.513C74.8015 147.045 74.8293 146.467 74.8351 145.945C74.841 145.411 74.8239 144.882 74.8058 144.49C74.7966 144.293 74.7872 144.129 74.7799 144.013C74.7763 143.955 74.7732 143.909 74.771 143.878C74.7699 143.862 74.769 143.849 74.7684 143.841C74.7681 143.836 74.7678 143.833 74.7676 143.83C74.7676 143.829 74.7675 143.828 74.7674 143.828C74.7674 143.827 74.7674 143.827 74.7674 143.827C74.7674 143.827 74.7673 143.826 74.7673 143.826C74.7673 143.826 74.7673 143.826 73.7701 143.901ZM75.1435 147.944C75.5497 147.931 75.7178 148.212 75.6713 148.148C75.6525 148.122 75.5974 148.026 75.5228 147.823C75.3785 147.43 75.2424 146.864 75.1245 146.246C75.0087 145.639 74.9185 145.026 74.8571 144.562C74.8265 144.33 74.8032 144.138 74.7877 144.004C74.78 143.937 74.7742 143.885 74.7703 143.85C74.7684 143.832 74.767 143.819 74.7661 143.81C74.7656 143.806 74.7653 143.803 74.7651 143.801C74.765 143.8 74.7649 143.799 74.7649 143.799C74.7648 143.798 74.7648 143.798 74.7648 143.798C74.7648 143.798 74.7648 143.798 74.7648 143.798C74.7648 143.798 74.7648 143.798 73.7701 143.901C72.7754 144.004 72.7754 144.004 72.7754 144.004C72.7754 144.004 72.7755 144.004 72.7755 144.004C72.7755 144.005 72.7755 144.005 72.7756 144.005C72.7757 144.006 72.7758 144.007 72.7759 144.009C72.7762 144.012 72.7767 144.016 72.7772 144.021C72.7784 144.032 72.78 144.047 72.7821 144.066C72.7864 144.106 72.7927 144.162 72.801 144.234C72.8175 144.377 72.8421 144.58 72.8744 144.824C72.9387 145.31 73.0345 145.963 73.1599 146.62C73.2832 147.267 73.4434 147.963 73.6454 148.513C73.744 148.781 73.8745 149.077 74.0532 149.323C74.2042 149.531 74.5816 149.964 75.2084 149.943L75.1435 147.944ZM75.5884 143.686C74.5924 143.775 74.5924 143.775 74.5924 143.775C74.5924 143.775 74.5924 143.775 74.5924 143.775C74.5924 143.775 74.5924 143.776 74.5924 143.776C74.5925 143.776 74.5925 143.777 74.5926 143.778C74.5928 143.78 74.5931 143.783 74.5935 143.788C74.5943 143.797 74.5955 143.81 74.597 143.829C74.6 143.865 74.6045 143.919 74.6099 143.988C74.6206 144.127 74.6352 144.325 74.6499 144.565C74.6795 145.044 74.7096 145.678 74.713 146.308C74.7165 146.95 74.6918 147.539 74.6254 147.949C74.6095 148.047 74.5927 148.125 74.5767 148.184C74.5601 148.245 74.5487 148.269 74.5491 148.268C74.5499 148.267 74.557 148.252 74.5727 148.23C74.5882 148.208 74.6165 148.172 74.6614 148.132C74.76 148.044 74.925 147.952 75.1394 147.944L75.2125 149.943C75.8953 149.918 76.2272 149.389 76.3448 149.149C76.4814 148.87 76.5544 148.549 76.5997 148.268C76.6934 147.689 76.7167 146.966 76.713 146.297C76.7093 145.617 76.677 144.942 76.6461 144.441C76.6306 144.19 76.6153 143.98 76.6038 143.833C76.5981 143.759 76.5933 143.701 76.5899 143.661C76.5882 143.641 76.5869 143.625 76.5859 143.614C76.5855 143.609 76.5851 143.604 76.5848 143.602C76.5847 143.6 76.5846 143.599 76.5845 143.598C76.5845 143.598 76.5844 143.597 76.5844 143.597C76.5844 143.597 76.5844 143.597 76.5844 143.597C76.5844 143.597 76.5844 143.596 75.5884 143.686ZM76.951 147.934C77.1436 147.865 77.3432 147.881 77.4999 147.945C77.6314 147.999 77.6947 148.07 77.6996 148.076C77.7035 148.08 77.6502 148.013 77.5624 147.808C77.3966 147.42 77.228 146.831 77.0746 146.174C76.9243 145.531 76.7999 144.872 76.7126 144.371C76.6692 144.121 76.6353 143.912 76.6123 143.767C76.6009 143.694 76.5922 143.637 76.5864 143.599C76.5835 143.579 76.5814 143.565 76.58 143.555C76.5793 143.551 76.5787 143.547 76.5784 143.545C76.5783 143.544 76.5781 143.543 76.5781 143.543C76.578 143.542 76.578 143.542 76.578 143.542C76.578 143.542 76.578 143.542 76.578 143.542C76.578 143.542 76.578 143.542 75.5884 143.686C74.5987 143.83 74.5988 143.83 74.5988 143.83C74.5988 143.83 74.5988 143.83 74.5988 143.83C74.5989 143.83 74.5989 143.831 74.599 143.831C74.5991 143.832 74.5993 143.833 74.5995 143.835C74.6 143.838 74.6006 143.842 74.6015 143.848C74.6031 143.859 74.6056 143.876 74.6088 143.897C74.6151 143.939 74.6245 144 74.6367 144.078C74.661 144.232 74.6966 144.452 74.7422 144.714C74.8331 145.236 74.9648 145.935 75.127 146.629C75.286 147.31 75.4861 148.039 75.7234 148.594C75.8372 148.86 75.994 149.171 76.214 149.415C76.4251 149.649 76.9398 150.063 77.6256 149.817L76.951 147.934ZM77.8908 143.385C76.8924 143.442 76.8924 143.442 76.8924 143.442C76.8924 143.442 76.8924 143.442 76.8924 143.442C76.8924 143.442 76.8924 143.442 76.8925 143.443C76.8925 143.443 76.8925 143.444 76.8926 143.445C76.8927 143.447 76.8929 143.45 76.8931 143.454C76.8936 143.463 76.8943 143.477 76.8952 143.495C76.8971 143.53 76.8997 143.584 76.9028 143.652C76.909 143.79 76.9169 143.987 76.9236 144.225C76.9372 144.703 76.9458 145.339 76.9275 145.979C76.9089 146.629 76.8634 147.244 76.7791 147.697C76.7361 147.928 76.6918 148.067 76.6615 148.134C76.6126 148.242 76.6662 148.037 76.9476 147.935L77.6289 149.816C78.1354 149.632 78.3767 149.195 78.4837 148.958C78.6094 148.68 78.6896 148.363 78.7453 148.063C78.8583 147.456 78.9072 146.719 78.9267 146.037C78.9465 145.345 78.937 144.669 78.9228 144.169C78.9157 143.918 78.9074 143.709 78.9008 143.562C78.8975 143.489 78.8946 143.431 78.8926 143.391C78.8915 143.371 78.8907 143.356 78.8901 143.345C78.8898 143.34 78.8896 143.335 78.8894 143.332C78.8893 143.331 78.8893 143.33 78.8892 143.329C78.8892 143.329 78.8892 143.328 78.8892 143.328C78.8892 143.328 78.8891 143.328 78.8891 143.328C78.8891 143.327 78.8891 143.327 77.8908 143.385ZM78.718 147.984C78.7824 147.886 79.0409 147.569 79.5179 147.599C79.8943 147.622 80.0874 147.856 80.0947 147.865C80.1402 147.916 80.1066 147.893 80.0177 147.671C79.8644 147.287 79.6848 146.674 79.5084 145.989C79.3351 145.315 79.1758 144.615 79.0593 144.081C79.0011 143.814 78.954 143.59 78.9214 143.433C78.9052 143.355 78.8926 143.293 78.8841 143.252C78.8798 143.231 78.8766 143.215 78.8745 143.204C78.8734 143.199 78.8726 143.195 78.8721 143.193C78.8719 143.191 78.8717 143.19 78.8716 143.19C78.8715 143.189 78.8715 143.189 78.8715 143.189C78.8714 143.189 78.8714 143.189 78.8714 143.189C78.8714 143.189 78.8714 143.189 77.8908 143.385C76.9101 143.581 76.9102 143.581 76.9102 143.581C76.9102 143.581 76.9102 143.581 76.9102 143.581C76.9103 143.581 76.9104 143.582 76.9104 143.582C76.9106 143.583 76.9108 143.584 76.9112 143.586C76.9118 143.589 76.9127 143.593 76.9139 143.599C76.9162 143.611 76.9197 143.628 76.9242 143.65C76.9331 143.694 76.9463 143.758 76.9631 143.84C76.9968 144.002 77.0454 144.233 77.1052 144.507C77.2244 145.054 77.3897 145.78 77.5715 146.487C77.75 147.181 77.956 147.901 78.1605 148.413C78.2504 148.638 78.3887 148.953 78.5919 149.184C78.6781 149.282 78.9464 149.567 79.3936 149.595C79.9415 149.629 80.2663 149.271 80.3917 149.079L78.718 147.984ZM78.9885 144.221C78.9606 145.078 78.9303 146.005 78.8698 146.775C78.8394 147.161 78.8031 147.486 78.7602 147.731C78.7082 148.028 78.67 148.058 78.718 147.984L80.3917 149.079C80.5944 148.769 80.6808 148.358 80.7303 148.075C80.789 147.74 80.8313 147.344 80.8636 146.932C80.9285 146.107 80.96 145.131 80.9875 144.286L78.9885 144.221ZM79.1347 141.897C79.0835 142.147 79.0579 142.517 79.0393 142.879C79.0195 143.266 79.0044 143.733 78.9885 144.221L80.9875 144.286C81.0035 143.792 81.0181 143.345 81.0367 142.981C81.0566 142.592 81.0783 142.375 81.0939 142.299L79.1347 141.897ZM80.5902 138.209C80.2523 139 79.9224 139.772 79.6657 140.402C79.4265 140.989 79.2029 141.565 79.1347 141.897L81.0939 142.299C81.0939 142.299 81.0943 142.297 81.0957 142.291C81.097 142.286 81.099 142.278 81.1017 142.268C81.1073 142.248 81.1151 142.222 81.1257 142.188C81.147 142.121 81.1764 142.036 81.2144 141.932C81.2905 141.724 81.3934 141.462 81.5179 141.156C81.7668 140.545 82.0893 139.79 82.4294 138.994L80.5902 138.209ZM80.5868 138.217L80.5867 138.217L82.4329 138.986L82.4329 138.986L80.5868 138.217ZM81.2665 136.617C81.048 137.137 80.817 137.678 80.5903 138.209L82.4295 138.994C82.6558 138.465 82.8892 137.918 83.1103 137.392L81.2665 136.617ZM83.953 138.793C83.8023 138.335 83.6487 137.868 83.5035 137.476C83.3725 137.123 83.2033 136.7 82.9973 136.417L81.3795 137.592C81.3761 137.588 81.4032 137.627 81.4572 137.746C81.5066 137.855 81.5636 137.997 81.6282 138.171C81.7578 138.521 81.8989 138.95 82.0532 139.418L83.953 138.793ZM84.3994 141.037C84.6575 141.041 84.8172 141.16 84.8601 141.195C84.9061 141.233 84.9115 141.251 84.8826 141.209C84.8258 141.126 84.7397 140.963 84.6296 140.702C84.4132 140.19 84.1862 139.502 83.953 138.793L82.0532 139.418C82.2779 140.102 82.5321 140.877 82.7873 141.481C82.913 141.778 83.0603 142.087 83.2304 142.336C83.315 142.46 83.4322 142.61 83.588 142.738C83.7406 142.864 84.0078 143.032 84.3708 143.037L84.3994 141.037ZM83.6915 138.394C83.7531 139.279 83.8128 140.154 83.7938 140.806C83.784 141.143 83.7542 141.335 83.73 141.414C83.7173 141.456 83.7293 141.387 83.8125 141.292C83.9218 141.167 84.1287 141.033 84.3994 141.037L84.3708 143.037C84.7822 143.043 85.1078 142.849 85.3168 142.61C85.4997 142.402 85.5923 142.165 85.6439 141.995C85.7484 141.65 85.782 141.239 85.7929 140.864C85.8155 140.092 85.7459 139.106 85.6867 138.255L83.6915 138.394ZM83.6005 136.753C83.6102 137.227 83.6512 137.814 83.6915 138.394L85.6867 138.255C85.6452 137.659 85.6085 137.127 85.6001 136.712L83.6005 136.753ZM81.8209 130.375C80.9618 130.887 80.9618 130.887 80.9617 130.886C80.9617 130.886 80.9617 130.886 80.9617 130.886C80.9618 130.887 80.9618 130.887 80.962 130.887C80.9622 130.887 80.9626 130.888 80.9631 130.889C80.9642 130.891 80.966 130.894 80.9683 130.898C80.9731 130.906 80.9803 130.918 80.9899 130.934C81.009 130.967 81.0375 131.015 81.074 131.078C81.147 131.204 81.2519 131.386 81.3781 131.611C81.6311 132.062 81.9676 132.679 82.3041 133.346C82.642 134.017 82.9724 134.725 83.2182 135.361C83.4769 136.03 83.5954 136.504 83.6005 136.753L85.6001 136.712C85.5872 136.085 85.3494 135.327 85.0836 134.639C84.8049 133.919 84.4427 133.146 84.0902 132.447C83.7364 131.744 83.3847 131.1 83.1221 130.632C82.9906 130.398 82.8809 130.207 82.8037 130.074C82.7651 130.008 82.7346 129.956 82.7136 129.92C82.703 129.902 82.6949 129.888 82.6892 129.878C82.6864 129.874 82.6842 129.87 82.6827 129.867C82.6819 129.866 82.6813 129.865 82.6808 129.864C82.6806 129.864 82.6804 129.864 82.6803 129.863C82.6802 129.863 82.6802 129.863 82.6801 129.863C82.6801 129.863 82.68 129.863 81.8209 130.375ZM82.818 130.451L82.818 130.451L80.8238 130.299L80.8237 130.3L82.818 130.451ZM79.0324 127.71C79.6524 128.663 80.3515 129.786 80.946 130.86L82.6957 129.891C82.0694 128.76 81.3425 127.594 80.7091 126.62L79.0324 127.71ZM72.124 116.536C74.8747 120.888 77.6357 125.257 79.0014 127.659L80.7401 126.671C79.345 124.217 76.5508 119.797 73.8146 115.468L72.124 116.536ZM72.1178 116.527L72.1179 116.527L73.8207 115.478L73.8206 115.478L72.1178 116.527ZM64.6662 104.185C64.8055 104.576 65.1476 105.214 65.5733 105.957C66.0168 106.731 66.6019 107.705 67.2791 108.808C68.6341 111.015 70.3746 113.769 72.1239 116.536L73.8145 115.468C72.0628 112.697 70.3302 109.955 68.9836 107.762C68.31 106.664 67.7372 105.711 67.3087 104.963C66.8623 104.184 66.6182 103.705 66.5501 103.513L64.6662 104.185Z" fill="#1C2A47" mask="url(#path-54-inside-1_4_3600)"/>
<path d="M165.419 55.9019C158.172 55.9019 152.276 47.6443 152.276 37.4907C152.276 27.3371 158.172 19.0795 165.419 19.0795C172.667 19.0795 178.563 27.3371 178.563 37.4907C178.563 47.6407 172.667 55.9019 165.419 55.9019ZM165.419 20.8894C159.172 20.8894 154.087 28.3371 154.087 37.4871C154.087 46.6408 159.169 54.0848 165.419 54.0848C171.667 54.0848 176.752 46.6372 176.752 37.4871C176.752 28.3371 171.667 20.8894 165.419 20.8894Z" fill="#1C2A47"/>
<path d="M165.997 70.2704V54.9952H164.183V69.5607C164.183 72.2774 163.885 75.0264 162.913 77.5639C162.755 77.9689 162.712 78.4312 162.813 78.9115C162.999 79.786 163.709 80.4921 164.584 80.6749C166.09 80.9903 167.421 79.8505 167.421 78.399C167.421 78.1589 167.385 77.9259 167.317 77.7073C166.56 75.2845 165.997 72.8079 165.997 70.2704Z" fill="#1C2A47"/>
<path d="M116.739 122.927C116.739 122.927 123.493 131.102 126.537 140.668C129.582 150.234 127.617 170 127.617 170H104.991C104.991 170 104.772 151.736 103.904 151.517C103.033 151.298 98.0297 170 98.0297 170H74.0983C74.0983 170 68.1164 140.213 85.0294 122.927L100.856 123.906L116.739 122.927Z" fill="#3A6B5F"/>
<path d="M116.74 118.687V122.927C116.74 122.927 108.689 130.755 85.0299 122.927L84.9761 118.687L105.755 117.383L116.74 118.687Z" fill="#1C2A47"/>
<path d="M108.695 67.5501C108.695 67.5501 117.08 67.2383 121.333 70.1736C124.378 72.2739 131.095 84.1156 131.095 84.1156L123.381 90.6672C123.381 90.6672 125.221 97.8138 118.037 101.398L116.735 118.684C116.735 118.684 103.247 126.511 84.9715 118.684C84.9715 118.684 81.4892 86.2875 78.2256 89.1117C74.9621 91.9395 73.004 94.4376 73.004 94.4376L60.8213 82.3701C60.8213 82.3701 74.105 69.0733 78.4982 66.9874C88.8124 62.0952 97.1506 66.801 97.1506 66.801L108.695 67.5501Z" fill="#6C8AC5"/>
<mask id="path-61-inside-2_4_3600" fill="white">
<path fill-rule="evenodd" clip-rule="evenodd" d="M88.8385 35.6557C89.2509 28.7385 94.8635 23.1187 101.785 22.7137C109.833 22.2406 116.482 28.6489 116.428 36.5768C116.424 36.7491 116.418 36.918 116.411 37.09L116.41 37.1108L116.424 37.1072C116.422 37.5342 116.428 38.0529 116.435 38.6439C116.507 44.6123 116.666 57.9649 108.753 58.8552L108.696 67.5501C108.696 67.5501 105.16 70.8761 97.1516 66.8082L97.6716 63.3353C98.188 59.8946 97.3022 56.4252 95.3369 53.5544C94.5793 52.4489 93.8814 51.1833 93.2005 49.7644C90.2651 50.4627 87.7909 46.7551 89.3015 45.2645C89.7936 44.7802 90.3772 44.5771 90.9588 44.5335C90.6387 43.7279 90.3122 42.8914 89.9754 42.0245C89.1254 40.0927 88.7022 37.9316 88.8385 35.6557Z"/>
</mask>
<path fill-rule="evenodd" clip-rule="evenodd" d="M88.8385 35.6557C89.2509 28.7385 94.8635 23.1187 101.785 22.7137C109.833 22.2406 116.482 28.6489 116.428 36.5768C116.424 36.7491 116.418 36.918 116.411 37.09L116.41 37.1108L116.424 37.1072C116.422 37.5342 116.428 38.0529 116.435 38.6439C116.507 44.6123 116.666 57.9649 108.753 58.8552L108.696 67.5501C108.696 67.5501 105.16 70.8761 97.1516 66.8082L97.6716 63.3353C98.188 59.8946 97.3022 56.4252 95.3369 53.5544C94.5793 52.4489 93.8814 51.1833 93.2005 49.7644C90.2651 50.4627 87.7909 46.7551 89.3015 45.2645C89.7936 44.7802 90.3772 44.5771 90.9588 44.5335C90.6387 43.7279 90.3122 42.8914 89.9754 42.0245C89.1254 40.0927 88.7022 37.9316 88.8385 35.6557Z" fill="#B5C4E2"/>
<path d="M101.785 22.7137L101.843 23.712L101.844 23.712L101.785 22.7137ZM88.8385 35.6557L89.8367 35.7155L89.8367 35.7152L88.8385 35.6557ZM116.428 36.5768L117.428 36.5968L117.428 36.5836L116.428 36.5768ZM116.411 37.09L115.412 37.05V37.05L116.411 37.09ZM116.41 37.1108L115.411 37.0708L115.357 38.4043L116.652 38.081L116.41 37.1108ZM116.424 37.1072L117.424 37.1133L117.432 35.8249L116.182 36.137L116.424 37.1072ZM116.435 38.6439L115.435 38.6559L116.435 38.6439ZM108.753 58.8552L108.641 57.8615L107.759 57.9607L107.753 58.8486L108.753 58.8552ZM108.696 67.5501L109.381 68.2785L109.693 67.985L109.696 67.5567L108.696 67.5501ZM97.1516 66.8082L96.1626 66.6601L96.0558 67.3732L96.6987 67.6998L97.1516 66.8082ZM97.6716 63.3353L96.6826 63.1868L96.6826 63.1872L97.6716 63.3353ZM95.3369 53.5544L96.1621 52.9895L96.1618 52.9891L95.3369 53.5544ZM93.2005 49.7644L94.1021 49.3317L93.7533 48.6049L92.9691 48.7915L93.2005 49.7644ZM89.3015 45.2645L88.6001 44.5517L88.5991 44.5527L89.3015 45.2645ZM90.9588 44.5335L91.0336 45.5307L92.3907 45.4289L91.8881 44.1642L90.9588 44.5335ZM89.9754 42.0245L90.9074 41.6623L90.8995 41.6419L90.8907 41.6218L89.9754 42.0245ZM101.727 21.7154C94.2981 22.1501 88.2828 28.1742 87.8403 35.5962L89.8367 35.7152C90.2191 29.3027 95.4289 24.0873 101.843 23.712L101.727 21.7154ZM117.428 36.5836C117.486 28.0804 110.354 21.2083 101.726 21.7154L101.844 23.712C109.312 23.273 115.478 29.2174 115.428 36.57L117.428 36.5836ZM117.41 37.1301C117.417 36.9596 117.424 36.7807 117.428 36.5968L115.428 36.5568C115.425 36.7174 115.419 36.8764 115.412 37.05L117.41 37.1301ZM117.409 37.1508L117.41 37.13L115.412 37.05L115.411 37.0708L117.409 37.1508ZM116.182 36.137L116.168 36.1406L116.652 38.081L116.667 38.0775L116.182 36.137ZM117.435 38.632C117.428 38.0378 117.422 37.5293 117.424 37.1133L115.424 37.1012C115.422 37.5391 115.428 38.0679 115.435 38.6559L117.435 38.632ZM108.865 59.8489C113.522 59.325 115.611 55.1246 116.564 50.8726C117.534 46.5447 117.47 41.5977 117.435 38.632L115.435 38.6559C115.471 41.6586 115.523 46.3721 114.613 50.4352C113.685 54.5741 111.898 57.4951 108.641 57.8615L108.865 59.8489ZM109.696 67.5567L109.753 58.8618L107.753 58.8486L107.696 67.5435L109.696 67.5567ZM96.6987 67.6998C100.86 69.8136 103.963 70.0556 106.096 69.6902C107.155 69.5087 107.951 69.1809 108.496 68.8848C108.768 68.737 108.976 68.5977 109.123 68.4893C109.196 68.4351 109.254 68.3886 109.297 68.3526C109.318 68.3346 109.336 68.3191 109.35 68.3067C109.357 68.3005 109.363 68.295 109.368 68.2903C109.371 68.2879 109.373 68.2857 109.375 68.2838C109.376 68.2828 109.377 68.2819 109.378 68.281C109.379 68.2806 109.379 68.2799 109.38 68.2797C109.38 68.2791 109.381 68.2785 108.696 67.5501C108.011 66.8217 108.011 66.8211 108.012 66.8206C108.012 66.8204 108.013 66.8198 108.013 66.8195C108.014 66.8188 108.014 66.8182 108.015 66.8176C108.016 66.8165 108.017 66.8155 108.018 66.8147C108.02 66.8132 108.021 66.8124 108.021 66.8123C108.021 66.8122 108.018 66.815 108.012 66.8203C107.999 66.831 107.973 66.852 107.934 66.8808C107.856 66.9384 107.725 67.0271 107.541 67.1277C107.172 67.3281 106.583 67.5775 105.758 67.719C104.12 67.9996 101.451 67.8707 97.6044 65.9166L96.6987 67.6998ZM96.6826 63.1872L96.1626 66.6601L98.1405 66.9563L98.6605 63.4833L96.6826 63.1872ZM94.5117 54.1193C96.3448 56.7969 97.1589 60.0139 96.6826 63.1868L98.6605 63.4837C99.2171 59.7753 98.2596 56.0535 96.1621 52.9895L94.5117 54.1193ZM92.2989 50.197C92.9937 51.6448 93.7164 52.9587 94.512 54.1197L96.1618 52.9891C95.4422 51.939 94.7691 50.7217 94.1021 49.3317L92.2989 50.197ZM88.5991 44.5527C87.9502 45.193 87.7751 46.0396 87.8677 46.8135C87.9589 47.5748 88.308 48.3228 88.7939 48.9486C89.7538 50.1847 91.4737 51.2031 93.432 50.7372L92.9691 48.7915C91.9919 49.024 91.0071 48.5378 90.3736 47.722C90.0629 47.3219 89.8932 46.9071 89.8535 46.5758C89.8154 46.2571 89.8974 46.0813 90.0039 45.9763L88.5991 44.5527ZM90.884 43.5363C90.1125 43.5942 89.2911 43.8718 88.6001 44.5517L90.0029 45.9773C90.2962 45.6887 90.6419 45.5601 91.0336 45.5307L90.884 43.5363ZM89.0433 42.3868C89.3804 43.2541 89.7079 44.0936 90.0295 44.9028L91.8881 44.1642C91.5694 43.3623 91.2441 42.5286 90.9074 41.6623L89.0433 42.3868ZM87.8403 35.5959C87.6942 38.0352 88.1481 40.3546 89.06 42.4273L90.8907 41.6218C90.1027 39.8309 89.7102 37.828 89.8367 35.7155L87.8403 35.5959Z" fill="#1C2A47" mask="url(#path-61-inside-2_4_3600)"/>
<path d="M113.598 43.4617C113.667 42.7987 113.186 42.2073 112.523 42.1392C111.859 42.0711 111.267 42.5514 111.199 43.2144C111.131 43.8775 111.612 44.4688 112.275 44.5369C112.935 44.605 113.527 44.1248 113.598 43.4617Z" fill="#1C2A47"/>
<path d="M102.216 44.6624C102.284 43.9993 101.804 43.408 101.14 43.3399C100.477 43.2718 99.8849 43.752 99.8167 44.4151C99.7486 45.0781 100.229 45.6695 100.893 45.7376C101.556 45.8057 102.148 45.3254 102.216 44.6624Z" fill="#1C2A47"/>
<path d="M111.762 51.1244C111.762 51.1244 110.105 50.1854 109.499 50.3861C108.893 50.5868 108.592 51.343 108.592 51.343C108.592 51.343 108.19 50.6191 107.441 50.6442C106.691 50.6692 104.263 52.1996 104.263 52.1996C104.263 52.1996 106.77 55.2676 109.015 54.7479C111.303 54.2175 111.762 51.1244 111.762 51.1244Z" fill="#6C8AC5"/>
<path d="M98.1514 42.451C98.008 42.4618 97.8609 42.4116 97.7533 42.3005C97.5597 42.1034 97.5669 41.7844 97.7641 41.5909C97.8251 41.5335 99.2596 40.1823 101.501 40.1107C101.777 40.1035 102.01 40.3185 102.017 40.5945C102.025 40.8705 101.788 41.107 101.533 41.1106C99.6648 41.1679 98.4742 42.2969 98.4598 42.3077C98.3738 42.3937 98.2626 42.4403 98.1514 42.451Z" fill="#1C2A47"/>
<path d="M110.539 39.5264C110.413 39.4583 110.317 39.3365 110.284 39.186C110.23 38.9136 110.403 38.6519 110.675 38.5946C110.758 38.5767 112.676 38.2003 114.62 39.358C114.857 39.5013 114.936 39.806 114.796 40.0425C114.656 40.2791 114.337 40.3543 114.111 40.2182C112.504 39.2612 110.894 39.573 110.876 39.573C110.754 39.6017 110.639 39.5802 110.539 39.5264Z" fill="#1C2A47"/>
<path d="M107.609 49.2858C109.032 49.0779 109.513 48.0135 109.563 47.397C109.57 47.2895 109.538 47.182 109.47 47.0995C108.2 45.5333 108.347 43.2538 108.351 43.2288C108.369 42.9958 108.193 42.7951 107.96 42.7772C107.731 42.7592 107.526 42.9349 107.508 43.1678C107.501 43.2718 107.34 45.6623 108.695 47.4759C108.609 47.8092 108.261 48.5475 106.909 48.4722C106.673 48.4615 106.475 48.6371 106.465 48.87C106.45 49.103 106.63 49.3001 106.863 49.3145C107.135 49.3288 107.383 49.3181 107.609 49.2858Z" fill="#1C2A47"/>
<path d="M104.263 52.2032C104.263 52.2032 108.85 51.791 111.762 51.1244C111.762 51.1244 110.518 53.5185 108.764 53.6153C107.01 53.7085 104.263 52.2032 104.263 52.2032Z" fill="white"/>
<path d="M100.605 36.6628C98.159 39.5157 95.5589 42.3112 93.7263 45.5763C93.5219 45.9347 92.0838 48.6371 92.4926 48.9525C90.2619 47.2357 88.8453 44.6875 87.6547 42.1428C85.589 37.7273 86.2345 32.4444 88.8238 28.3872C91.3844 24.3767 95.6486 22.3123 100.329 21.961C105.35 21.5847 110.811 23.3051 113.849 27.5091C116.7 31.4552 116.801 36.4227 117.098 41.0819C116.761 35.8492 109.754 31.9032 105.55 30.0287C105.672 30.0825 102.384 34.5267 102.211 34.7417C101.688 35.3905 101.15 36.0284 100.605 36.6628Z" fill="#1C2A47"/>
<path d="M95.9601 99.018C89.8418 99.018 87.2884 92.9036 87.2633 92.8427C87.2167 92.728 87.2705 92.5954 87.3888 92.5488C87.5036 92.4986 87.6363 92.556 87.6829 92.6742C87.708 92.7352 90.1467 98.5664 95.9601 98.5664C101.781 98.5664 104.036 94.3301 104.058 94.287C104.115 94.1759 104.252 94.1329 104.363 94.1903C104.474 94.2476 104.517 94.3838 104.46 94.4949C104.442 94.5379 102.068 99.018 95.9601 99.018Z" fill="#95E7D4"/>
<path d="M123.385 90.8966C123.274 90.8966 123.173 90.8105 123.159 90.6958C123.156 90.6564 122.628 86.5706 119.465 83.5995C119.376 83.5134 119.368 83.3701 119.454 83.2805C119.541 83.1909 119.684 83.1837 119.774 83.2697C123.059 86.3592 123.586 90.4701 123.604 90.6457C123.618 90.7711 123.532 90.8822 123.407 90.8966C123.403 90.8966 123.392 90.8966 123.385 90.8966Z" fill="#95E7D4"/>
<path d="M103.222 47.9776C103.222 48.7195 102.308 49.3217 101.182 49.3217C100.056 49.3217 99.141 48.7195 99.141 47.9776C99.141 47.2357 100.056 46.6336 101.182 46.6336C102.308 46.6336 103.222 47.2357 103.222 47.9776Z" fill="#91A7D3"/>
<path d="M114.867 46.9347C114.867 47.6766 113.952 48.2787 112.826 48.2787C111.7 48.2787 110.785 47.6766 110.785 46.9347C110.785 46.1928 111.7 45.5907 112.826 45.5907C113.952 45.5907 114.867 46.1892 114.867 46.9347Z" fill="#91A7D3"/>
<path d="M167.769 67.5286L167.404 67.1865L167.404 67.1866L167.403 67.1871L167.402 67.1885L167.401 67.1893L167.393 67.1982L167.36 67.2334C167.331 67.2643 167.287 67.3098 167.232 67.3676C167.122 67.4833 166.964 67.6483 166.772 67.845C166.389 68.2389 165.874 68.7581 165.345 69.2626C164.922 69.6663 164.498 70.0534 164.128 70.3583C164.406 69.8711 164.782 69.287 165.176 68.7032C165.267 68.5688 165.358 68.4348 165.45 68.3026C165.461 68.2878 165.473 68.273 165.485 68.2582C165.914 67.7152 166.309 67.1637 166.596 66.7495C166.74 66.542 166.857 66.368 166.938 66.2456C166.979 66.1844 167.011 66.136 167.032 66.1028L167.057 66.0644L167.064 66.0543L167.066 66.0516L167.066 66.0508L167.066 66.0506C167.066 66.0505 167.066 66.0504 166.646 65.7796M167.769 67.5286L168.135 67.8688L168.135 67.8689L168.134 67.8694L168.132 67.8717L168.124 67.8809L168.09 67.9175C168.06 67.9498 168.017 67.9974 167.961 68.0583C167.85 68.1801 167.692 68.355 167.503 68.5666C167.126 68.9904 166.63 69.5594 166.153 70.1434C165.674 70.7288 165.225 71.3157 164.93 71.782C164.936 71.7782 164.942 71.7744 164.949 71.7706C165.432 71.4767 166.041 71.0277 166.649 70.5498C167.253 70.0747 167.842 69.5816 168.281 69.2065C168.5 69.0191 168.681 68.8617 168.807 68.7512C168.87 68.696 168.919 68.6525 168.953 68.623L168.991 68.5894L169 68.5809L169.002 68.5788L169.003 68.5784L169.003 68.5783L169.336 68.9515L169.003 68.5783L169.674 69.3181L169.675 69.3191L169.675 69.3191L169.675 69.3192L169.674 69.3196L169.672 69.3215L169.663 69.3295L169.629 69.3614C169.599 69.3896 169.554 69.4312 169.498 69.4845C169.385 69.5913 169.223 69.7448 169.032 69.9311C168.648 70.3044 168.145 70.8068 167.663 71.3275C167.178 71.8524 166.731 72.379 166.447 72.8035C166.392 72.8863 166.346 72.9608 166.308 73.0269C166.361 73.0067 166.42 72.9821 166.484 72.9527C166.876 72.7732 167.363 72.4679 167.853 72.1264C168.337 71.7882 168.804 71.4285 169.151 71.1521C169.324 71.0143 169.467 70.8978 169.566 70.816C169.615 70.7752 169.654 70.743 169.68 70.7212C170.02 70.2788 170.147 69.9628 170.185 69.7417C170.221 69.5278 170.181 69.3622 170.102 69.1979C170.06 69.1099 170.008 69.0229 169.944 68.9242C169.931 68.9033 169.916 68.8807 169.901 68.8571C169.85 68.7794 169.791 68.6896 169.742 68.6043C169.608 68.3729 169.458 68.0379 169.561 67.629C169.574 67.5782 169.571 67.4826 169.485 67.3217C169.4 67.1632 169.261 66.9923 169.095 66.8263C168.932 66.6633 168.76 66.5218 168.626 66.4199C168.56 66.3695 168.505 66.3298 168.467 66.3033C168.448 66.29 168.434 66.2801 168.424 66.2738L168.414 66.2671L168.413 66.2661L168.413 66.266L168.413 66.2659L168.413 66.2659L168.412 66.2658L168.207 66.1313L168.188 65.8857C168.178 65.7501 168.076 65.6006 167.879 65.4537C167.788 65.3867 167.697 65.3347 167.627 65.2995C167.593 65.2821 167.565 65.2695 167.548 65.2617L167.529 65.2539L167.528 65.2536L167.527 65.253L167.527 65.253L167.526 65.2528L167.28 65.1582L167.22 64.8996L167.22 64.8993L167.22 64.899L167.22 64.8987L167.22 64.8985L167.22 64.8984L167.218 64.8897C167.216 64.8812 167.212 64.8674 167.207 64.8492C167.197 64.8128 167.182 64.7598 167.16 64.6971C167.117 64.5683 167.054 64.4151 166.975 64.2844C166.89 64.1449 166.819 64.0852 166.782 64.0677C166.771 64.0622 166.766 64.0621 166.761 64.0625C166.753 64.063 166.721 64.0669 166.66 64.1026L166.658 64.1038L166.658 64.1038C166.608 64.1331 166.489 64.2301 166.303 64.4257C166.127 64.6102 165.918 64.8523 165.69 65.1357C165.236 65.7022 164.722 66.415 164.269 67.1213C163.812 67.8327 163.432 68.5148 163.229 69.0243C163.194 69.1116 163.166 69.1887 163.145 69.2561C163.24 69.1922 163.35 69.1059 163.473 68.9959C163.837 68.6718 164.248 68.2054 164.646 67.7065C165.007 67.1834 165.359 66.6901 165.641 66.302C165.821 66.0544 165.972 65.8491 166.078 65.7055C166.131 65.6337 166.173 65.5774 166.202 65.5389L166.235 65.4948L166.243 65.4833L166.245 65.4804L166.246 65.4796L166.246 65.4794C166.246 65.4793 166.246 65.4793 166.646 65.7796M167.769 67.5286L167.404 67.1865L168.135 67.8688L167.769 67.5286ZM166.646 65.7796L166.246 65.4793L167.066 66.0504L166.646 65.7796ZM163.083 69.5695C163.083 69.5695 163.083 69.569 163.083 69.5679L163.083 69.5695ZM165.998 73.104C165.998 73.1039 166 73.1039 166.003 73.1045C166 73.1044 165.998 73.1041 165.998 73.104ZM166.177 73.3271C166.177 73.3334 166.176 73.3371 166.176 73.3373C166.176 73.3375 166.176 73.3343 166.177 73.3271Z" fill="#91A7D3" stroke="#1C2A47"/>
<path d="M105.575 128.163C103.373 128.163 101.584 126.375 101.584 124.174C101.584 121.974 103.373 120.185 105.575 120.185C107.777 120.185 109.567 121.974 109.567 124.174C109.563 126.371 107.774 128.163 105.575 128.163ZM105.575 121.995C104.374 121.995 103.398 122.974 103.398 124.171C103.398 125.371 104.377 126.346 105.575 126.346C106.777 126.346 107.752 125.371 107.752 124.171C107.752 122.974 106.773 121.995 105.575 121.995Z" fill="#7BE1C9"/>
<path d="M74.3549 28.3454L76.6427 24.8204L74.3549 19.2017L72.0671 24.8204L74.3549 28.3454Z" fill="white"/>
<path d="M123.754 11.8868L121.483 15.4259L123.802 21.0305L126.059 15.3976L123.754 11.8868Z" fill="white"/>
<path d="M140.226 49.3759L137.956 52.9136L140.275 58.5195L142.531 52.8888L140.226 49.3759Z" fill="white"/>
<path d="M45.9676 33.8316L43.6989 37.3694L46.0161 42.9753L48.2744 37.3446L45.9676 33.8316Z" fill="white"/>
</svg>
