<svg width="191" height="32" viewBox="0 0 191 32" fill="none" xmlns="http://www.w3.org/2000/svg">
<g clip-path="url(#clip0_5_4647)">
<path d="M81.2949 16.023C81.2949 10.881 85.1402 6.93262 90.2973 6.93262C93.6449 6.93262 96.5401 8.67724 97.8973 11.386L94.7306 13.2683C93.9616 11.6615 92.333 10.6055 90.252 10.6055C87.2663 10.6055 84.9592 12.9011 84.9592 16.023C84.9592 19.145 87.2211 21.4405 90.252 21.4405C92.2878 21.4405 93.9616 20.3846 94.7759 18.7777L97.9425 20.6141C96.4949 23.3229 93.5997 25.1134 90.2973 25.1134C85.1402 25.1134 81.2949 21.1191 81.2949 16.023Z" fill="white"/>
<path d="M98.1689 16.023C98.1689 10.881 102.195 6.93262 107.171 6.93262C112.193 6.93262 116.174 10.881 116.174 16.023C116.174 21.1191 112.193 25.1134 107.171 25.1134C102.195 25.1134 98.1689 21.1191 98.1689 16.023ZM112.464 16.023C112.464 12.8551 110.157 10.5596 107.171 10.5596C104.186 10.5596 101.878 12.8551 101.878 16.023C101.878 19.1909 104.186 21.4864 107.171 21.4864C110.157 21.4864 112.464 19.145 112.464 16.023Z" fill="white"/>
<path d="M133.59 14.0488V24.6543H129.881V14.4161C129.881 11.7992 128.388 10.4219 126.081 10.4219C123.683 10.4219 121.738 11.891 121.738 15.3803V24.6543H118.074V7.34583C121.014 7.34583 121.738 8.21814 121.738 9.54956C122.869 7.75903 124.724 6.88672 127.031 6.88672C130.831 6.93263 133.59 9.54956 133.59 14.0488Z" fill="white"/>
<path d="M141.1 10.9725V19.2824C141.1 21.4862 142.548 21.4403 145.307 21.3025V24.654C139.652 25.3427 137.39 23.7358 137.39 19.2824V10.9725H134.631V7.34556H137.39V6.38143C137.39 4.03997 138.25 3.44312 139.969 2.84628L141.055 2.5249V7.34556H145.262V10.9266H141.1V10.9725Z" fill="white"/>
<path d="M146.438 2.38737C146.438 1.05595 147.478 0 148.79 0C150.102 0 151.143 1.05595 151.143 2.38737C151.143 3.67288 150.102 4.77475 148.79 4.77475C147.524 4.77475 146.438 3.67288 146.438 2.38737ZM146.981 7.34577H150.645V24.6083H146.981V7.34577Z" fill="white"/>
<path d="M169.509 7.34584C168.424 7.34584 167.79 7.62131 167.428 8.03451C167.066 8.49362 166.976 9.13637 166.976 9.87095C165.664 7.9886 163.674 6.84082 161.05 6.84082C156.255 6.84082 152.455 10.8351 152.455 15.7476C152.455 20.706 156.255 24.6543 161.05 24.6543C163.674 24.6543 165.664 23.5065 166.976 21.6242V23.8738C166.976 26.9039 165.076 28.6486 161.909 28.6486C158.924 28.6486 157.702 27.4549 156.933 25.9857L154.264 28.6945C155.802 30.8982 158.471 32.046 161.819 32.046C166.297 32.046 170.595 29.475 170.595 23.8738V7.34584H169.509ZM161.593 21.2569C158.471 21.2569 156.164 18.9613 156.164 15.8394C156.164 12.7174 158.471 10.4219 161.593 10.4219C164.714 10.4219 167.021 12.7174 167.021 15.8394C167.021 18.9613 164.669 21.2569 161.593 21.2569Z" fill="white"/>
<path d="M172.495 16.023C172.495 10.881 176.521 6.93262 181.497 6.93262C186.519 6.93262 190.5 10.881 190.5 16.023C190.5 21.1191 186.519 25.1134 181.497 25.1134C176.521 25.1134 172.495 21.1191 172.495 16.023ZM186.836 16.023C186.836 12.8551 184.528 10.5596 181.543 10.5596C178.557 10.5596 176.25 12.8551 176.25 16.023C176.25 19.1909 178.557 21.4864 181.543 21.4864C184.483 21.4864 186.836 19.145 186.836 16.023Z" fill="white"/>
<path d="M78.8067 14.3701V25.0674H75.1424V14.5996C75.1424 12.1664 73.8305 10.8349 71.84 10.8349C69.6686 10.8349 68.1305 12.2582 68.1305 15.3801V25.0674H64.4662V14.5996C64.4662 12.1664 63.29 10.8349 61.2543 10.8349C59.1734 10.8349 57.4543 12.2582 57.4543 15.3801V25.0674H53.79V7.80481C56.3234 7.80481 57.4543 8.35575 57.4543 9.87081C58.54 8.1721 60.2138 7.3457 62.34 7.3457C64.5567 7.3457 66.1853 8.35575 67.1805 10.0545C68.3115 8.26392 70.121 7.3457 72.3829 7.3457C76.2281 7.3457 78.8067 10.0545 78.8067 14.3701Z" fill="white"/>
<path d="M47.9094 22.4505C47.9094 23.4147 47.6832 24.1492 47.2761 24.6543C46.7332 25.3429 45.8737 25.5266 45.4213 25.5266C45.4213 25.5266 45.3761 25.5266 45.3308 25.5266H45.2856H45.2404C44.0642 25.5266 43.2951 24.5165 43.2499 24.4247L43.2047 24.3788C40.038 20.5223 32.1666 12.6715 28.457 8.99859C28.5023 8.95268 28.5475 8.95268 28.5927 8.90677C28.7737 8.76904 28.9094 8.6313 29.0904 8.49357C29.2261 8.40175 29.3166 8.30993 29.4523 8.17219C29.588 8.08037 29.6785 7.98855 29.7689 7.89673C29.8594 7.85082 29.9046 7.75899 29.9951 7.71308C31.3523 6.56531 32.6642 5.46344 33.5689 4.72886C33.6594 4.63704 33.7951 4.54522 33.8856 4.4534C33.9761 4.36158 34.1118 4.26975 34.2023 4.17793C34.5189 3.90247 34.6999 3.76473 34.6999 3.76473C34.6999 3.76473 36.5547 2.11193 38.907 3.44336C39.2237 3.627 39.5404 3.94838 39.9023 4.40749C39.9475 4.4534 39.9927 4.49931 40.038 4.59113L40.0832 4.63704C40.1737 4.72886 40.2642 4.8666 40.3546 5.00433C40.4451 5.14206 40.5356 5.2798 40.6261 5.41753C40.6713 5.50935 40.7166 5.55526 40.7618 5.64709C40.807 5.693 40.8523 5.73891 40.8523 5.83073C40.8975 5.92255 40.988 6.06029 41.0332 6.15211C41.0785 6.24393 41.1237 6.33575 41.1689 6.42757C41.2142 6.47348 41.2142 6.5194 41.2594 6.56531C41.3499 6.70304 41.3951 6.84077 41.4856 6.97851C41.4856 7.02442 41.5308 7.02442 41.5308 7.07033C41.757 7.48353 42.0285 7.94264 42.2999 8.44766C42.3451 8.53948 42.4356 8.67722 42.4808 8.76904C42.5261 8.86086 42.5713 8.99859 42.6618 9.09041C42.7523 9.27406 42.8427 9.4577 42.9332 9.64135C42.9332 9.68726 42.9785 9.73317 42.9785 9.77908C43.0689 9.91681 43.1142 10.1005 43.2047 10.2841C43.4761 10.7891 43.7023 11.3401 43.9285 11.891C44.0189 12.1205 44.1546 12.3501 44.2451 12.6256C44.607 13.4061 44.9237 14.2325 45.2404 15.0129C45.4213 15.4261 45.6023 15.8853 45.738 16.2984C45.8285 16.528 45.9189 16.7116 45.9642 16.9412C46.1451 17.4003 46.3261 17.8594 46.4618 18.3185C46.5523 18.5481 46.5975 18.7317 46.688 18.9613C46.7785 19.1908 46.8237 19.3745 46.9142 19.604C47.0046 19.7877 47.0499 20.0172 47.0951 20.2009C47.1404 20.3845 47.2308 20.6141 47.2761 20.7977C47.3213 20.9355 47.3666 21.0732 47.4118 21.2109C47.5475 21.5782 47.638 21.9914 47.7285 22.3128C47.8189 22.1751 47.8642 22.2669 47.9094 22.4505Z" fill="white"/>
<path d="M47.0498 26.4001C46.6427 26.9969 46.326 27.2724 46.326 27.2724C46.326 27.2724 44.9236 28.8793 42.4808 28.8793C42.4808 28.8793 40.8522 28.9252 39.5855 28.0529C39.1331 27.7315 37.776 26.8592 35.876 25.8491C34.8355 25.2982 33.5689 24.6554 32.2569 24.1045C32.2117 24.1045 32.2117 24.0586 32.1665 24.0586C30.8093 23.4618 29.407 22.9108 27.9593 22.4976C27.9593 22.4976 27.9141 22.4976 27.8689 22.4517C26.0141 21.9008 24.1141 21.5335 22.395 21.5335C15.4284 21.5335 3.21409 28.6038 3.21409 28.6038C3.21409 28.6038 2.85219 28.8333 2.30933 28.8333C1.76647 28.8333 0.771234 28.5579 0.499806 27.3183C0.364091 26.7674 1.0879 24.885 2.9879 21.763C2.9879 21.763 2.9879 21.7171 3.03314 21.7171C4.02838 20.0643 5.34028 18.0902 7.01409 15.7487C9.32123 12.489 12.3069 8.63249 16.1522 4.08729C16.1522 4.08729 17.1022 2.93952 18.776 2.93952C18.776 2.93952 20.1331 2.84769 21.3998 3.90365C21.8522 4.27094 23.7522 6.10738 26.4665 8.72431C31.4879 13.6368 39.2689 21.4876 42.2546 25.2064C42.2546 25.2064 43.3855 26.8133 45.2403 26.8133H45.3308C45.376 26.8133 45.4665 26.8133 45.5117 26.8133C45.7831 26.7674 46.4165 26.7214 47.0498 26.4001Z" fill="white"/>
<path opacity="0.2" d="M47.9094 22.4508C47.9094 23.4149 47.6832 24.1495 47.2761 24.6545C46.7332 25.3432 45.8737 25.5268 45.4213 25.5268C45.4213 25.5268 45.3761 25.5268 45.3308 25.5268H45.2856H45.2404C44.0642 25.5268 43.2951 24.5168 43.2499 24.4249L43.2047 24.379C40.038 20.5225 32.1666 12.6717 28.457 8.99884C28.5023 8.95293 28.5475 8.95293 28.5927 8.90702C28.7737 8.76928 28.9094 8.63155 29.0904 8.49382C29.2261 8.40199 29.3166 8.31017 29.4523 8.17244C29.588 8.08062 29.6785 7.98879 29.7689 7.89697C32.2118 8.95293 37.2785 11.3862 46.0999 16.8037C46.2808 17.2628 46.4618 17.7219 46.5975 18.181C46.688 18.4106 46.7332 18.5942 46.8237 18.8238C46.9142 19.0534 46.9594 19.237 47.0499 19.4666C47.1404 19.6502 47.1856 19.8798 47.2308 20.0634C47.2761 20.247 47.3666 20.4766 47.4118 20.6602C47.457 20.798 47.5023 20.9357 47.5475 21.0734C47.6832 21.4407 47.7737 21.8539 47.8642 22.1753C47.8189 22.1753 47.8642 22.2671 47.9094 22.4508Z" fill="white"/>
<path opacity="0.2" d="M27.8689 22.4048C26.0141 21.8539 24.1141 21.4866 22.395 21.4866C15.4284 21.5325 3.21409 28.6028 3.21409 28.6028C3.21409 28.6028 2.85219 28.8323 2.30933 28.8323C1.76647 28.8323 0.771234 28.5569 0.499806 27.3173C0.364091 26.7663 1.0879 24.884 2.9879 21.762C2.9879 21.762 2.9879 21.7161 3.03314 21.7161C13.6189 18.0432 26.7379 22.0375 27.8689 22.4048Z" fill="white"/>
</g>
<defs>
<clipPath id="clip0_5_4647">
<rect width="190" height="32" fill="white" transform="translate(0.5)"/>
</clipPath>
</defs>
</svg>
